<svg xmlns="http://www.w3.org/2000/svg" viewBox="0 0 128 128">
<path d="M107.487 29.2599V57.9067H101.725V45.4498H89.4707V57.9067H83.7494V29.2599H89.4707V40.8647H101.725V29.2599H107.487ZM123.063 35.1434C125.255 35.1434 127.216 35.6033 128.947 36.523C130.705 37.4428 132.085 38.7818 133.086 40.5401C134.087 42.2713 134.587 44.3137 134.587 46.6671C134.587 49.0205 134.087 51.0629 133.086 52.7941C132.085 54.5254 130.705 55.8644 128.947 56.8112C127.216 57.7309 125.255 58.1908 123.063 58.1908C120.872 58.1908 118.898 57.7309 117.139 56.8112C115.408 55.8644 114.042 54.5254 113.041 52.7941C112.04 51.0629 111.54 49.0205 111.54 46.6671C111.54 44.3137 112.04 42.2713 113.041 40.5401C114.042 38.7818 115.408 37.4428 117.139 36.523C118.898 35.6033 120.872 35.1434 123.063 35.1434ZM123.063 40.0938C121.467 40.0938 120.115 40.6618 119.006 41.798C117.897 42.907 117.342 44.5301 117.342 46.6671C117.342 48.8041 117.897 50.4407 119.006 51.5768C120.115 52.6859 121.467 53.2405 123.063 53.2405C124.659 53.2405 126.012 52.6859 127.121 51.5768C128.23 50.4407 128.785 48.8041 128.785 46.6671C128.785 44.5301 128.23 42.907 127.121 41.798C126.012 40.6618 124.659 40.0938 123.063 40.0938ZM149.018 35.1434C151.209 35.1434 153.17 35.6033 154.901 36.523C156.66 37.4428 158.039 38.7818 159.04 40.5401C160.041 42.2713 160.542 44.3137 160.542 46.6671C160.542 49.0205 160.041 51.0629 159.04 52.7941C158.039 54.5254 156.66 55.8644 154.901 56.8112C153.17 57.7309 151.209 58.1908 149.018 58.1908C146.827 58.1908 144.852 57.7309 143.094 56.8112C141.363 55.8644 139.996 54.5254 138.996 52.7941C137.995 51.0629 137.494 49.0205 137.494 46.6671C137.494 44.3137 137.995 42.2713 138.996 40.5401C139.996 38.7818 141.363 37.4428 143.094 36.523C144.852 35.6033 146.827 35.1434 149.018 35.1434ZM149.018 40.0938C147.422 40.0938 146.069 40.6618 144.96 41.798C143.851 42.907 143.297 44.5301 143.297 46.6671C143.297 48.8041 143.851 50.4407 144.96 51.5768C146.069 52.6859 147.422 53.2405 149.018 53.2405C150.614 53.2405 151.966 52.6859 153.076 51.5768C154.185 50.4407 154.739 48.8041 154.739 46.6671C154.739 44.5301 154.185 42.907 153.076 41.798C151.966 40.6618 150.614 40.0938 149.018 40.0938Z" fill="white"/>
  <circle cx="64" cy="64" r="64" fill="#61DAFB" />
  <path
    fill="#FFF"
    d="M44.36 28.3c-2.92-.15-5.5-.34-7.78-.57 1.72 5.42 4.64 10.36 8.9 14.63 2.37-1.97 5.01-3.76 7.88-5.28-1.8-4.63-4.38-8.42-8-11.78zm10.67 7.77c-.12-.01-.24-.02-.35-.04-3.3-.43-6.8-.34-10.25.25-1.97.35-3.9.82-5.84 1.47 2.8 4.2 6.7 7.72 11.44 10.16 1.64-2.34 2.94-5.02 3.85-8.13zm-3.3 7.06c-.79.22-1.6.39-2.43.52-2.2.33-4.43.39-6.67.28-1.07-.06-2.12-.18-3.15-.37 0 0-.03-.01-.05-.01v-1.35c0-.1.02-.19.03-.28.2-.8.52-1.57.95-2.27 1.1-1.57 2.96-2.87 5.44-4.02 2.14-.92 4.49-1.52 6.97-1.77 1.11-.11 2.23-.17 3.35-.16-.01.23-.03.46-.05.7-.09 1.38-.31 2.71-.65 3.98-2.2 9.32-6.42 16.45-12.51 21.43-3.88-3.13-6.97-6.92-9.14-11.18z"
  />
</svg>
